<?xml version="1.0" standalone="no"?>
<!DOCTYPE svg PUBLIC "-//W3C//DTD SVG 20010904//EN"
 "http://www.w3.org/TR/2001/REC-SVG-20010904/DTD/svg10.dtd">
<svg version="1.0" xmlns="http://www.w3.org/2000/svg"
 width="16.000000pt" height="16.000000pt" viewBox="0 0 16.000000 16.000000"
 preserveAspectRatio="xMidYMid meet">
<metadata>
Created by potrace 1.11, written by Peter Selinger 2001-2013
</metadata>
<g transform="translate(0.000000,16.000000) scale(0.003125,-0.003125)"
fill="#000000" stroke="none">
<path d="M2389 5106 c-2 -2 -35 -6 -74 -10 -38 -4 -99 -11 -135 -17 -36 -6
-76 -13 -90 -15 -14 -1 -45 -8 -70 -14 -25 -6 -72 -18 -105 -26 -80 -21 -284
-89 -343 -115 -93 -42 -277 -132 -282 -139 -3 -3 -12 -10 -20 -14 -42 -20
-141 -85 -152 -101 -5 -7 -8 -7 -8 0 0 7 -3 7 -8 0 -4 -6 -25 -23 -47 -40 -41
-30 -44 -33 -81 -63 -97 -77 -283 -256 -347 -332 -230 -272 -389 -561 -500
-905 -28 -84 -71 -269 -81 -345 -4 -25 -9 -56 -11 -70 -25 -148 -25 -591 0
-690 2 -8 6 -32 9 -52 18 -116 19 -122 46 -228 58 -232 162 -482 283 -680 47
-77 132 -204 156 -232 9 -11 23 -28 31 -38 8 -9 26 -33 40 -51 42 -57 291
-302 360 -355 36 -27 70 -54 76 -59 6 -6 51 -37 100 -69 49 -33 102 -68 117
-78 44 -30 274 -144 362 -178 160 -64 324 -111 511 -146 114 -22 221 -29 434
-29 265 0 330 6 540 51 256 55 517 156 733 283 43 25 85 51 95 56 10 6 55 37
101 70 46 33 91 65 100 70 9 6 25 19 36 30 11 11 43 38 70 60 63 51 225 214
225 227 0 5 5 6 10 3 6 -3 10 -1 10 4 0 6 8 19 18 29 131 140 299 411 415 672
40 91 125 365 141 454 3 16 10 52 15 80 43 220 51 618 15 821 -44 259 -85 407
-161 595 -64 156 -172 358 -255 475 -16 22 -39 56 -53 75 -13 19 -39 53 -59
75 -20 22 -36 46 -36 53 0 6 -7 12 -15 12 -8 0 -15 4 -15 9 0 5 -17 27 -38 49
-21 22 -51 54 -65 72 -15 17 -27 30 -27 27 0 -2 -26 21 -58 52 -63 61 -116
107 -158 137 -15 10 -35 26 -44 35 -32 31 -244 166 -332 213 -284 151 -606
251 -938 292 -55 6 -435 16 -441 10z m326 -330 c66 -3 147 -11 180 -17 33 -5
73 -12 89 -14 90 -13 341 -91 450 -139 95 -43 211 -101 214 -108 2 -5 9 -8 16
-8 6 0 32 -18 56 -39 25 -22 62 -50 82 -63 73 -45 36 -47 -128 -8 -47 12 -95
20 -107 18 -46 -6 -86 -61 -94 -130 -2 -21 -15 -59 -28 -85 -24 -44 -24 -47
-9 -79 9 -19 21 -34 27 -34 6 0 8 -3 4 -6 -3 -4 13 -25 37 -48 57 -53 64 -85
30 -120 -15 -14 -33 -26 -42 -26 -17 0 -108 93 -128 131 -20 40 -70 72 -99 65
-14 -4 -26 -12 -26 -19 -1 -6 -3 -23 -4 -36 -3 -27 -47 -71 -71 -71 -13 0 -15
-12 -12 -67 2 -38 6 -66 9 -63 3 3 13 -1 22 -8 10 -9 17 -10 22 -2 3 6 11 8
16 5 5 -4 15 -3 22 2 15 10 47 15 47 7 0 -3 -4 -13 -9 -23 -11 -20 -4 -35 21
-44 10 -4 15 -12 12 -21 -7 -19 13 -56 31 -56 25 0 69 -45 62 -64 -5 -13 -17
-16 -52 -14 -25 2 -45 6 -45 10 0 14 -60 -9 -76 -30 -6 -8 -11 -40 -12 -71 0
-31 -1 -61 -2 -66 -1 -6 -1 -12 0 -15 1 -3 3 -16 4 -30 5 -42 10 -54 38 -82
16 -17 34 -25 43 -22 28 11 15 -14 -31 -63 -56 -57 -73 -83 -79 -114 -4 -21
-49 -69 -65 -69 -21 0 -110 -103 -134 -155 -16 -33 -33 -66 -39 -74 -6 -7 -12
-18 -13 -25 -1 -6 -10 -26 -21 -44 -19 -30 -19 -34 -2 -99 17 -69 14 -93 -20
-168 -17 -36 -18 -50 -9 -68 5 -10 12 -30 14 -44 6 -35 77 -136 141 -204 53
-56 143 -127 143 -113 0 4 6 -1 14 -11 10 -14 26 -19 57 -20 73 0 308 24 323
33 24 14 83 18 94 6 7 -7 12 -16 12 -19 0 -19 36 -39 65 -37 25 2 38 -3 48
-19 16 -22 15 -28 -15 -97 -10 -24 -16 -51 -13 -62 3 -10 8 -29 10 -42 3 -13
9 -32 14 -43 22 -46 37 -121 30 -149 -5 -16 -6 -33 -3 -38 3 -4 0 -8 -6 -8 -6
0 -9 -4 -6 -8 6 -10 -13 -95 -23 -102 -4 -3 -25 -30 -46 -60 -21 -30 -41 -57
-44 -60 -8 -7 -11 -21 -15 -88 -5 -69 -19 -128 -43 -192 -4 -8 -5 -19 -4 -23
0 -4 -6 -21 -14 -37 -9 -17 -12 -30 -8 -30 4 0 2 -5 -5 -12 -7 -7 -12 -20 -12
-30 0 -10 -5 -18 -11 -18 -5 0 -8 -4 -4 -9 3 -6 -3 -14 -12 -20 -10 -6 -15
-11 -10 -11 4 0 -4 -17 -18 -38 -15 -23 -23 -46 -19 -55 8 -21 -4 -22 119 7
61 15 102 32 156 67 35 23 65 41 67 40 1 0 10 7 20 17 11 9 39 33 63 52 24 19
50 43 58 52 9 10 19 18 24 18 11 0 107 95 107 107 0 11 105 113 117 113 5 0
15 9 23 20 8 11 18 20 22 20 15 0 -20 -56 -66 -104 -40 -43 -86 -120 -86 -145
0 -9 -105 -117 -151 -156 -13 -11 -46 -36 -74 -55 -27 -19 -52 -37 -55 -40
-27 -28 -241 -160 -317 -195 -24 -11 -43 -24 -43 -28 0 -5 -3 -6 -8 -4 -4 3
-24 -3 -45 -13 -21 -11 -55 -24 -75 -31 -20 -6 -41 -15 -47 -19 -5 -5 -30 -14
-55 -21 -56 -16 -52 -14 -70 -22 -20 -9 -213 -53 -270 -62 -25 -4 -54 -9 -65
-11 -115 -23 -600 -23 -623 1 -3 3 3 14 12 24 17 18 17 20 -3 40 -25 25 -50
27 -66 4 -12 -16 -14 -16 -41 2 -16 10 -64 54 -106 98 l-77 79 18 36 c11 22
16 45 12 57 -4 11 -7 25 -6 30 4 27 30 105 35 105 10 0 2 85 -11 113 -16 35
-6 54 42 80 54 30 100 68 94 77 -3 5 -1 11 3 14 5 3 9 65 8 138 -2 132 -2 133
26 166 50 58 75 121 71 176 -2 28 -9 59 -17 71 -22 33 -171 103 -256 120 -150
29 -164 37 -263 139 -37 39 -82 86 -100 104 -35 37 -123 82 -172 87 -37 5 -60
16 -78 41 -17 23 -17 26 1 68 23 51 17 65 -29 75 -38 8 -37 0 -39 156 -1 59
-7 107 -14 115 -28 36 -59 53 -118 66 -170 37 -231 63 -234 97 0 6 -2 20 -2
29 -3 23 -32 27 -60 9 -14 -8 -27 -11 -30 -5 -4 5 -16 15 -27 21 -137 86 -149
88 -203 39 -21 -20 -52 -36 -73 -40 -58 -9 -69 -17 -86 -57 -8 -22 -19 -39
-24 -39 -18 0 -35 41 -33 77 4 42 23 133 33 148 3 6 6 12 6 15 1 9 39 85 50
98 41 54 79 69 91 37 4 -8 16 -15 29 -15 12 0 28 7 35 15 14 17 29 19 49 6 12
-8 16 -42 21 -166 0 -5 11 -11 24 -11 14 -1 35 -11 47 -23 28 -26 41 -26 62
-3 13 14 14 21 5 30 -7 7 -9 12 -4 12 4 0 -2 12 -13 26 -20 25 -20 29 -7 109
1 6 4 15 7 20 4 6 9 23 13 39 7 30 66 96 85 96 6 0 11 3 11 8 0 4 20 20 45 35
54 35 96 82 89 102 -4 8 6 20 24 29 17 9 51 36 77 61 26 25 54 46 61 46 8 1
17 2 22 3 4 1 22 6 40 10 17 4 32 13 32 19 0 20 43 62 77 76 28 11 33 11 52
-8 23 -23 29 -21 156 35 48 21 44 20 73 29 12 4 22 15 22 25 0 31 11 51 24 42
9 -8 57 -24 78 -26 3 -1 10 -4 13 -8 4 -4 15 -3 25 2 10 5 20 7 22 4 7 -6 58
17 59 28 1 4 2 14 3 21 1 6 -1 24 -5 39 -4 16 -2 36 6 52 7 13 15 41 18 61 4
30 1 38 -17 46 -21 10 -22 16 -20 82 6 135 13 167 37 167 7 0 32 14 57 30 25
16 52 30 61 30 9 0 22 7 29 15 7 8 16 13 20 10 15 -9 21 34 9 57 -7 13 -12 38
-10 55 1 18 -6 44 -15 58 -20 31 -9 48 52 76 59 27 86 28 90 6 3 -24 4 -25 38
-31 36 -7 44 -14 46 -46 5 -60 0 -81 -23 -91 -13 -6 -29 -20 -36 -31 -22 -35
-37 -111 -30 -148 8 -39 68 -98 97 -96 25 1 112 59 112 74 0 6 4 12 8 12 5 0
22 11 38 25 16 14 32 25 36 25 4 0 17 4 30 9 13 5 26 9 31 9 4 1 26 12 50 26
23 14 60 27 83 31 66 9 156 48 177 76 10 15 21 46 23 69 2 24 6 45 8 47 2 2 0
20 -4 39 -7 31 -6 36 16 46 39 18 27 47 -27 67 -25 10 -60 29 -78 42 -30 22
-41 24 -149 24 -99 0 -125 -4 -169 -23 l-52 -22 -59 44 c-31 24 -64 46 -72 47
-18 4 -96 -43 -151 -90 -21 -18 -39 -31 -39 -27 0 3 0 9 1 12 0 4 -5 10 -12
15 -16 9 -83 -36 -100 -68 -15 -27 -29 -21 -29 13 0 30 -29 33 -55 4 -16 -18
-20 -18 -34 -6 -9 8 -29 13 -46 11 -16 -2 -57 -6 -90 -10 -37 -3 -76 -15 -102
-31 -24 -14 -43 -23 -43 -20 0 6 -74 -15 -80 -23 -3 -3 -22 -14 -43 -24 -27
-12 -37 -22 -33 -32 3 -9 0 -15 -9 -15 -8 0 -15 5 -15 10 0 6 -7 10 -16 10
-26 0 -1 24 48 46 24 10 49 24 56 31 7 7 18 13 23 13 5 0 36 13 69 29 33 16
60 27 60 24 0 -3 6 -1 13 5 7 6 35 18 62 27 28 9 59 20 70 25 47 21 249 71
340 85 23 3 50 7 62 9 12 3 53 8 90 11 37 4 69 8 70 9 3 3 169 -2 298 -8z
m-828 -451 c-16 -14 -33 -23 -38 -19 -13 8 29 44 50 44 12 -1 8 -8 -12 -25z
m-97 -42 c-1 -11 -26 -43 -34 -43 -8 0 -8 35 1 43 9 9 33 9 33 0z m-176 -60
c8 -8 13 -10 49 -12 20 -2 21 -3 5 -15 -10 -7 -18 -18 -18 -24 0 -6 -15 -20
-33 -31 -18 -11 -48 -38 -65 -61 -18 -22 -39 -40 -47 -40 -8 0 -15 -4 -15 -8
0 -7 -57 -32 -73 -32 -3 0 -17 22 -30 48 -23 46 -24 49 -7 70 10 12 21 22 24
22 3 0 22 11 42 25 20 14 40 22 45 19 5 -3 9 0 9 6 0 6 3 9 8 7 4 -2 21 4 37
14 33 19 57 23 69 12z m249 -39 c16 -19 27 -37 25 -38 -1 -2 -14 -9 -27 -16
-22 -11 -24 -11 -18 10 4 15 -2 30 -19 47 -29 29 -30 33 -6 33 9 0 30 -16 45
-36z m1933 -122 c12 -8 47 -82 42 -87 -2 -3 -20 -6 -41 -9 -20 -2 -42 -8 -48
-12 -8 -5 -10 7 -6 44 7 70 21 86 53 64z m-2063 -295 c-7 -37 -14 -47 -20 -29
-4 10 -11 9 -31 -4 -15 -9 -32 -22 -38 -29 -6 -8 -16 -10 -23 -6 -9 6 -6 15
13 36 14 15 28 35 31 45 4 13 16 18 40 18 33 0 34 -1 28 -31z m2564 -184 c22
3 38 -3 64 -24 35 -29 30 -36 -15 -19 -17 6 -26 6 -26 0 0 -6 -3 -9 -7 -9 -5
1 -10 0 -13 -1 -60 -23 -99 6 -76 58 8 20 11 21 27 6 11 -9 28 -14 46 -11z
m-594 -72 c4 -1 7 -10 7 -20 0 -11 5 -23 10 -26 6 -4 8 -10 5 -15 -3 -5 -1
-19 4 -33 11 -28 51 -40 69 -21 15 16 16 51 2 59 -12 7 -14 35 -2 35 4 0 19
-11 34 -25 15 -14 40 -30 55 -36 l28 -11 -35 -13 c-41 -14 -42 -37 -4 -73 13
-13 24 -28 24 -34 0 -6 -8 -2 -17 9 -29 33 -59 44 -100 36 -21 -3 -59 -6 -85
-6 -27 0 -48 -3 -48 -6 0 -3 -15 -5 -32 -5 -18 1 -37 -2 -43 -6 -16 -11 -95
-29 -95 -21 0 4 11 13 24 20 29 16 43 45 41 88 -1 30 16 49 38 45 4 -1 13 10
19 25 7 16 16 30 20 33 6 5 51 5 81 1z m327 -113 c0 -6 3 -8 6 -5 4 4 16 -3
26 -16 11 -12 32 -36 46 -53 38 -43 113 -90 140 -88 13 1 32 11 43 23 26 28
52 27 75 -4 11 -15 29 -25 44 -25 24 0 26 -4 27 -39 l1 -39 -58 -6 c-41 -5
-71 -2 -104 9 -103 35 -157 29 -167 -17 -4 -15 -8 -15 -41 2 -20 10 -39 15
-42 12 -4 -3 -6 -1 -6 5 0 6 -14 13 -31 17 -48 9 -96 35 -96 51 0 13 4 13 24
-1 23 -15 25 -14 30 5 3 12 9 21 14 21 5 0 9 11 9 25 0 14 4 25 10 25 5 0 7 6
4 14 -3 8 0 17 5 21 6 3 9 11 6 16 -4 5 -1 9 4 9 6 0 10 3 10 8 -1 4 -1 15 0
25 1 19 21 24 21 5z m200 -69 c0 -11 -4 -17 -10 -14 -5 3 -10 13 -10 21 0 8 5
14 10 14 6 0 10 -9 10 -21z m-3579 -671 c10 -25 26 -33 52 -29 4 1 11 -9 16
-22 20 -52 63 -65 116 -33 31 19 45 22 74 15 20 -5 81 -11 136 -15 114 -7 164
-23 166 -53 2 -32 6 -61 9 -63 3 -3 5 -18 13 -88 3 -25 8 -55 11 -67 6 -26 3
-27 -25 -12 -11 5 -45 13 -75 16 -30 2 -63 6 -72 8 -9 2 -20 4 -24 4 -5 1 -19
14 -33 30 -22 24 -33 28 -80 29 -45 0 -61 -5 -95 -30 -23 -16 -49 -42 -58 -59
-13 -22 -22 -27 -37 -22 -11 3 -34 5 -52 5 -41 -2 -47 16 -44 126 2 95 -12
130 -65 156 -38 18 -43 41 -20 97 7 19 16 42 19 52 7 17 8 17 31 0 14 -10 30
-30 37 -45z m104 13 c3 -5 2 -12 -3 -15 -5 -3 -9 1 -9 9 0 17 3 19 12 6z m75
-31 c0 -13 -11 -13 -30 0 -12 8 -11 10 8 10 12 0 22 -4 22 -10z m3844 -113 c3
-16 1 -25 -5 -22 -5 4 -9 18 -9 32 0 32 7 27 14 -10z m-4224 -106 c36 -45 68
-97 81 -133 13 -34 33 -67 48 -79 14 -10 41 -33 59 -50 27 -25 40 -30 62 -26
24 5 29 2 35 -21 22 -85 24 -146 8 -217 -16 -69 -13 -113 15 -185 3 -8 6 -17
7 -20 7 -22 33 -69 47 -84 10 -11 18 -24 18 -28 0 -5 4 -6 10 -3 6 3 10 2 10
-4 0 -5 15 -25 33 -45 38 -41 45 -50 77 -96 37 -52 143 -160 158 -160 6 0 12
-3 12 -7 0 -5 23 -19 50 -32 28 -14 50 -28 50 -32 0 -4 9 -11 20 -14 11 -3 20
-11 20 -16 0 -10 8 -21 40 -58 8 -9 21 -29 29 -44 8 -15 18 -27 23 -27 4 0 8
-5 8 -10 0 -6 23 -40 50 -75 28 -35 50 -67 50 -69 0 -20 314 -336 333 -336 9
0 17 -4 19 -9 2 -7 65 -49 204 -138 15 -9 11 -10 -21 -2 -63 16 -243 78 -303
105 -30 13 -60 24 -67 24 -8 0 -15 3 -17 8 -1 4 -37 24 -78 45 -93 46 -134 70
-138 80 -2 4 -8 7 -14 7 -9 0 -148 91 -174 115 -7 5 -31 26 -54 44 -23 19 -48
41 -56 48 -7 7 -15 13 -17 13 -9 0 -197 191 -197 200 0 5 -6 13 -13 17 -8 4
-41 44 -75 88 -33 44 -68 88 -76 98 -9 9 -16 19 -16 21 0 3 -22 40 -48 83 -50
80 -165 303 -157 303 2 0 -4 19 -14 43 -37 87 -94 267 -105 332 -2 17 -9 53
-14 80 -15 73 -21 120 -37 284 -3 29 -3 57 0 61 13 21 60 -11 115 -79z m4309
-82 c-19 -12 -24 -2 -8 17 9 11 14 13 17 4 3 -7 -2 -16 -9 -21z m-75 -446 c-9
-42 -34 -111 -64 -178 -14 -33 -35 -81 -46 -107 -10 -27 -22 -48 -26 -48 -5 0
-8 -7 -8 -15 0 -24 -50 -97 -63 -92 -20 7 -12 79 18 157 16 41 32 77 35 80 3
3 16 25 29 49 13 25 28 50 32 55 5 6 28 37 51 69 23 31 43 57 45 57 2 0 1 -12
-3 -27z m-270 -534 c-25 -27 -37 -23 -18 6 9 14 20 22 26 19 5 -3 2 -14 -8
-25z"/>
<path d="M3265 4596 c-92 -25 -89 -32 48 -104 35 -17 90 -6 95 20 4 22 -36 76
-62 85 -32 11 -38 11 -81 -1z"/>
<path d="M2870 4292 c0 -7 -4 -11 -9 -8 -4 3 -16 0 -26 -8 -15 -11 -16 -17 -6
-49 7 -19 18 -40 24 -46 38 -31 152 -29 182 3 37 40 37 43 8 73 -25 25 -34 28
-93 27 -37 -1 -68 4 -72 10 -5 7 -8 7 -8 -2z"/>
<path d="M3680 1920 c0 -6 -4 -9 -9 -6 -13 9 -21 -35 -10 -56 10 -18 15 -20
44 -20 36 0 45 3 45 17 0 8 4 15 8 15 5 0 9 7 9 15 0 8 -4 15 -9 15 -4 0 -7 6
-5 13 1 7 -12 13 -35 15 -23 2 -38 -1 -38 -8z"/>
</g>
</svg>
