<?xml version="1.0" encoding="UTF-8"?>
<svg width="1000" height="1000" xmlns="http://www.w3.org/2000/svg" xmlns:svg="http://www.w3.org/2000/svg" xmlns:xlink="http://www.w3.org/1999/xlink">
 <metadata>Svg Vector Icons : http://www.onlinewebfonts.com/icon</metadata>
 <defs>
  <symbol id="svg_5" viewBox="0 0 1000 1000" y="0px" x="0px" xmlns:xlink="http://www.w3.org/1999/xlink" xmlns="http://www.w3.org/2000/svg">
   <metadata>Svg Vector Icons : http://www.onlinewebfonts.com/icon</metadata>
   <g>
    <g transform="translate(0.000000,511.000000) scale(0.100000,-0.100000)">
     <path d="m924.299988,1295.300049c-196.5,-53.599976 -331.799988,-130.099976 -479.799988,-270.5c-242.399994,-227.100037 -344.5,-502.800049 -344.5,-916.20005c0,-260.299995 43.399994,-472.099998 130.199997,-643.099998c74.000015,-148 280.700027,-357.299988 426.200027,-436.399963c280.700012,-153.100037 61.299988,-145.500061 4343.700073,-145.500061c4226.200684,0 4052.699707,-5.099976 4318.100098,130.200073c58.700195,30.599976 165.900391,109.699951 237.299805,178.699951c242.400391,227 344.5,502.600006 344.5,916.099998s-102.099609,689.099953 -344.5,916.20005c-153.099609,145.5 -283.299805,216.899902 -490,270.5c-214.400391,56.199951 -7934.5,53.599976 -8141.200012,0z" fill="#fff"/>
    </g>
   </g>
  </symbol>
 </defs>
 <g>
  <title>Layer 1</title>
  <g id="svg_1">
   <g id="svg_2" transform="translate(0.000000,511.000000) scale(0.100000,-0.100000)">
    <path id="svg_3" d="m929.599976,4967.399902c-196.400024,-53.600098 -331.599976,-130.100098 -479.5,-270.399902c-153,-145.399902 -250,-311.200195 -306.100006,-520.300293c-58.699997,-224.399658 -58.699997,-6276.999756 0,-6498.899658c53.600006,-206.600098 125,-336.699951 270.399994,-489.699951c201.5,-211.700195 505,-344.300049 793.200012,-344.300049l122.400024,0l0,3032.699921c0,2953.600128 2.599976,3037.699982 51,3193.300079c94.400024,303.5 357.099976,566.199951 660.599976,660.599854c155.599976,48.5 239.799927,51 3193.299927,51l3032.600098,0l0,122.400146c0,288.199951 -132.600098,591.699951 -344.299805,793.199951c-153,145.399902 -283.100098,216.799805 -489.700195,270.399902c-211.600098,56.100098 -6299.900024,53.600098 -6503.900024,0z" fill="#fff"/>
    <path id="svg_4" d="m2561.899902,3335.100098c-74,-20.399902 -183.600098,-61.199951 -242.300049,-91.800049c-147.899902,-74 -357.099976,-278 -436.099976,-426c-150.5,-278 -145.400024,-140.300049 -145.400024,-3524.899841c0,-3338.700012 -2.5,-3236.700012 130.100098,-3499.399719c74,-147.900391 280.599854,-357.100098 425.899902,-436.100098c278,-150.5 140.300049,-145.399902 3524.900146,-145.399902c3384.599609,0 3246.899414,-5.100098 3524.899414,145.399902c145.400391,79.100098 352,288.199707 425.900391,436.100098c132.599609,262.699707 130.099609,160.699707 130.099609,3499.399719c0,3384.600037 5.100586,3246.899841 -145.399414,3524.899841c-79.100586,145.400146 -288.200195,352 -436.100586,426c-262.700195,135.199951 -158.099609,130.100098 -3512.199707,127.5c-2596.399658,0 -3134.599609,-7.699951 -3244.299805,-35.699951zm6333.100098,-844.300049c38.299805,-28.100098 94.400391,-84.199951 122.400391,-122.399902c53.599609,-68.900146 53.599609,-79.100098 53.599609,-3076.000122c0,-2996.89978 0,-3007.099976 -53.599609,-3075.999878c-28.100586,-38.300049 -84.200195,-94.400146 -122.400391,-122.5c-68.799805,-53.600098 -79.099609,-53.600098 -3076,-53.600098c-2996.899902,0 -3007.100098,0 -3076,53.600098c-38.300049,28.099854 -94.399902,84.199951 -122.399902,122.5c-53.600098,68.799805 -53.600098,86.699951 -61.200195,3007.099976c-2.599854,1617.099976 0,2974.000122 7.600098,3019.900024c17.899902,102 125,232.099854 229.600098,278c61.199951,28 617.199951,33.199951 3053.100098,28c2961.200195,-5.000244 2976.5,-5.000244 3045.299805,-58.600098z" fill="#fff"/>
   </g>
  </g>
  <use x="1276.559689" y="1245" transform="matrix(0.348546, 0, 0, 0.333333, -37.9866, 0)" xlink:href="#svg_5" id="svg_6"/>
  <g id="svg_7"/>
 </g>
</svg>